<?xml version="1.0" encoding="UTF-8"?>
<svg id="Layer_1" data-name="Layer 1" xmlns="http://www.w3.org/2000/svg" viewBox="0 0 102.4 91.96">
  <defs>
    <style>
      .cls-1 {
        fill: #f46d08;
      }

      .cls-2 {
        fill: #fff;
      }

      .cls-3 {
        fill: #ffbc00;
      }

      .cls-4 {
        fill: #fafa8d;
      }

      .cls-5 {
        fill: #908fb2;
      }

      .cls-6 {
        fill: #212021;
      }

      .cls-7 {
        fill: #484759;
      }
    </style>
  </defs>
  <g>
    <g>
      <path class="cls-4" d="m45.89,27.07c-.65.32-1.12,1.13-1.12,2.08,0,1.23.78,2.23,1.74,2.23.79,0,1.46-.69,1.67-1.62-.71-1.19-1.52-2.07-2.29-2.7Z"/>
      <path class="cls-4" d="m56.51,27.07c-.77.63-1.58,1.5-2.29,2.7.21.93.88,1.62,1.67,1.62.96,0,1.74-1,1.74-2.23,0-.95-.47-1.76-1.12-2.08Z"/>
      <path class="cls-2" d="m54.37,36.68c-1.42.58-2.64.61-3.17.59-.53.02-1.75,0-3.17-.59-.81-.33-1.43-.64-1.88-.89.02.38.08.85.18,1.38.2.67.52,1.41,1.02,2.12l.02-.05.16-2.06.42.39c.15.04,1.23.34,3.24.35,2.01,0,3.09-.3,3.24-.35l.42-.39.16,2.06.02.05c.51-.72.83-1.47,1.03-2.15.1-.51.14-.98.17-1.35-.45.25-1.07.56-1.88.89Z"/>
      <path class="cls-2" d="m48.28,41.42c.22.12.45.23.69.33h0c.53-.13,1.35-.29,2.24-.24.89-.05,1.7.11,2.24.25h0c.24-.11.47-.22.69-.34.48-.55.85-1.15,1.14-1.75-.53.76-1.02,1.26-1.02,1.26.09-1.24-.31-1.86-.31-1.86-.4.74-.8,1.31-1.02,1.59.23.14.49.33.49.33-.55-.14-1.35-.18-1.35-.18h0c-.35-.02-.68-.02-.84-.02-.17,0-.5,0-.84.02h0s-.8.04-1.35.18c0,0,.25-.19.49-.33-.22-.28-.62-.85-1.02-1.59,0,0-.4.62-.31,1.86,0,0-.48-.49-1.01-1.24.29.59.66,1.18,1.13,1.73Z"/>
      <path class="cls-2" d="m52.47,61.11l-1.27-1.57-1.25,1.54c-1.36,1.86-3,4.58-3.38,7.3-.01.14-.14,2.21,1.42,3.5,1.21,1,2.7,1.2,3.21,1.24.49-.04,2.01-.23,3.22-1.24,1.55-1.28,1.43-3.34,1.42-3.5-.38-2.72-2-5.42-3.36-7.28Z"/>
      <path class="cls-6" d="m62.5,36.64l2.41,1.15c-.79-2.98-2.81-4.62-3.99-5.35-.1.14-.19.27-.28.39-.07,1.03-.48,4.54-2.69,7.37-.98,1.55-2.55,3.87-3.74,4.84-.77.63-1.89.81-2.63.85h0s-.14.01-.32.01c-.02,0-.04,0-.06,0-.02,0-.04,0-.06,0-.18,0-.3,0-.32,0h0c-.74-.05-1.86-.23-2.63-.86-1.2-.97-2.76-3.29-3.74-4.84-2.21-2.83-2.62-6.34-2.69-7.37-.09-.12-.19-.25-.28-.39-1.18.73-3.2,2.37-3.99,5.35l2.41-1.15-.51,1.69s-.94,3.26.25,6.43l.04-.03c.31-3,1.44-4.32,1.44-4.32,0,2.08.44,3.79.91,5.05.45.99,1.33,2.58,2.91,4.1l.04-.06c-.55-2.73.08-3.88.08-3.88.81,2.09,1.85,3.34,2.84,4.08.79.41,1.9.84,3.3.97,1.4-.13,2.51-.56,3.3-.97.99-.74,2.03-1.99,2.84-4.08,0,0,.63,1.15.08,3.88l.04.06c1.56-1.51,2.44-3.06,2.89-4.06.49-1.26.93-2.99.93-5.1,0,0,1.13,1.32,1.44,4.32l.04.03c1.2-3.18.26-6.39.25-6.43l-.51-1.69Z"/>
      <path class="cls-6" d="m60.63,59.68s0-.02,0-.04c0-.03,0-.06-.01-.09-.05-.29-.25-1.03-1.14-1.77-1.07-.9-3.35-1.92-8.1-1.8h0c-.06,0-.12,0-.18,0-.06,0-.12,0-.18,0h0c-4.75-.13-7.03.9-8.1,1.79-.88.74-1.09,1.48-1.14,1.77,0,.03,0,.06-.01.09,0,.02,0,.03,0,.04h0c-.07.69.03,1.57.53,2.64,1.52-.64,3.39-1.12,5.66-1.23l3.25-3.84,3.25,3.84c2.27.11,4.14.59,5.66,1.23.5-1.07.6-1.95.53-2.64h0Z"/>
      <path class="cls-2" d="m91.4,31c2.59-.27,5.91-.48,7.83-.59-3.81-4.34-7.78-6.58-13.37-7.62-3.35-.62-7.31-.15-9.92.31-2.55.57-7.06,1.93-13.28,5.1-.22,1.03-.57,2.02-.97,2.87,1.03.63,2.62,1.85,3.75,3.87,1.21.36,3.43.98,6.22,1.56,2.55.53,7.71-.49,11.45-1.4.29-.1.59-.2.9-.31,3.11-1.09,5.9-1.64,7.73-1.92l-2.58-1.63,2.24-.23Z"/>
      <path class="cls-2" d="m26.07,11.5l.87.61-1.42,1.11c.97,1.17,3.48,3.83,7.28,5.27.26-.11.53-.22.79-.35,3.72-1.78,6.38-4.82,7.96-9.05-1.17-.85-7.24-4.97-16.2-6.6-3.66-.67-7.37-.85-9.35-.9,1.42,2.01,4.77,6.23,10.07,9.92Z"/>
      <path class="cls-2" d="m38.82,22.52l1.8.2c.09-.11.21-.25.38-.41,1.37-1.44,2.97-2.11,3.96-2.4-.3-1.28-.6-2.28-.85-2.99-2.14,3.13-4.08,4.78-5.29,5.6Z"/>
      <path class="cls-2" d="m63.58,22.52c-1.21-.82-3.15-2.47-5.29-5.6-.24.71-.54,1.71-.85,2.99.99.29,2.59.96,3.95,2.4.16.16.29.3.38.42l1.8-.2Z"/>
      <path class="cls-2" d="m26.47,23.11c-2.61-.47-6.58-.94-9.92-.31-5.59,1.04-9.56,3.28-13.37,7.62,1.92.11,5.25.32,7.83.59l2.24.23-2.58,1.63c1.83.28,4.61.83,7.73,1.92.31.11.61.21.9.31,3.74.91,8.89,1.93,11.45,1.4,2.79-.58,5.02-1.2,6.22-1.56,1.13-2.01,2.72-3.23,3.75-3.87-.4-.85-.75-1.84-.97-2.87-6.23-3.17-10.73-4.53-13.28-5.1Z"/>
      <path class="cls-2" d="m68.87,18.16c.25.12.49.22.73.32,3.8-1.43,6.31-4.1,7.28-5.27l-1.42-1.11.87-.61c5.3-3.69,8.65-7.9,10.07-9.92-1.98.05-5.69.24-9.35.9-8.96,1.63-15.03,5.75-16.2,6.6,1.58,4.26,4.27,7.3,8.02,9.08Z"/>
      <path class="cls-2" d="m75.6,40.66c-1.43-.62-3.06-1.16-4.87-1.51,1.87,1.23,3.33,2.39,4.11,3.03l.76-1.53Z"/>
      <path class="cls-2" d="m78.8,42.34l-1.72-.99c-.2-.1-.4-.2-.61-.31l.04.09c.96,2.11.68,3.85.67,3.92l-.03.15-.09.12c-3.18,4.23-6.39,6.21-8.84,7.14.13.08.27.15.41.23,2.88,1.43,6.44,3.22,9.05,4.57,2.15,1.12,3.45,2.73,4.17,3.89.49-1.33.7-2.76.71-2.78l.26-1.84,3.25,4.24c1.21-5.02.46-9.56-2.23-13.52-2.22-3.27-5.02-4.91-5.04-4.93Z"/>
      <path class="cls-2" d="m64.73,43.44c-.18.97-.49,1.99-1.02,2.99l-.48.9-.93-.86c.61,1.13,1.63,2.63,3.22,4.06,2.25-2.05,3.49-3.77,4.01-4.6-1.56-.82-3.53-1.83-4.81-2.48Z"/>
      <path class="cls-2" d="m26.8,40.66l.76,1.53c.78-.65,2.23-1.8,4.11-3.03-1.81.35-3.44.89-4.87,1.51Z"/>
      <path class="cls-2" d="m25.34,45.34l-.09-.12-.03-.15c-.01-.07-.29-1.82.67-3.92l.04-.09c-.21.1-.41.2-.61.31l-1.72.99s-2.82,1.65-5.04,4.93c-2.69,3.96-3.44,8.5-2.23,13.52l3.25-4.24.26,1.84s.21,1.45.71,2.78c.72-1.17,2.02-2.78,4.17-3.89,2.61-1.36,6.17-3.14,9.05-4.57.14-.08.28-.15.41-.23-2.45-.92-5.66-2.91-8.84-7.14Z"/>
      <path class="cls-2" d="m38.69,46.43c-.53-1-.84-2.02-1.02-2.99-1.28.66-3.25,1.67-4.81,2.48.53.83,1.76,2.55,4.01,4.6,1.59-1.43,2.6-2.93,3.22-4.06l-.93.86-.48-.9Z"/>
      <path class="cls-3" d="m46.91,22.25c1.25,1.25,1.6,3.16,1.6,3.16,0,0-1.25-1.74-3.43-2.67-1.12-.48-2.05-.11-2.72.42-.05.05-.1.09-.14.13-.18.18-.36.38-.53.6-1.19,1.52-.51,4.55.42,6.53.56,1,1.39,2.17,2.52,3.02,0,0-.66.16-1.25-.05.18,1.33.74,3.93,2.43,6-.91-2.34-.77-4.49-.76-4.63l.05-.97.83.57s.79.6,2.51,1.31c1.15.47,2.14.52,2.61.51,0,0,.05,0,.14,0,.09,0,.14,0,.14,0,.47,0,1.47-.04,2.61-.51,1.72-.7,3.31-1.77,3.31-1.77l.08.86c0,.13.14,2.29-.77,4.64,1.7-2.08,2.25-4.68,2.43-6.02-.47.17-.97.11-1.17.07-.05,0-.08-.02-.08-.02,1.14-.84,1.97-2.01,2.53-3.02.93-1.98,1.61-5,.42-6.53-.11-.14-.22-.27-.33-.39-.12-.13-.29-.28-.5-.46-.66-.45-1.53-.74-2.56-.29-.34.15-.66.31-.95.49,0,0,0,0,0,0-1.59.95-2.48,2.18-2.48,2.18,0,0,.36-1.91,1.6-3.16.31-.31.75-.63,1.25-.85-1.39-.45-3.2-.78-5.54-.78-2.36,0-4.17.32-5.56.77.51.22.96.54,1.27.86Zm5.9,7.65s1.5-3.9,3.89-4.76c0,0,0,0,.01,0,.76-.27,1.61-.23,2.53.35.03.01.05.02.06.04,0,0-.66.16-1.59.7.21.05,1.07.32,1.99,1.43,0,0-2.29,6.04-6.14,3.37l-.63.84-1.05-1.56.93-.41Zm-2.29.41l-1.05,1.56-.63-.84c-3.85,2.67-6.14-3.37-6.14-3.37.92-1.11,1.77-1.38,1.99-1.43-.92-.54-1.59-.7-1.59-.7,0-.01.03-.02.06-.04,3.81-2.4,6.43,4.41,6.43,4.41l.93.41Z"/>
      <path class="cls-3" d="m37.22,23.49l-.61-.49c-.53-.39-1.18-.9-1.77-1.49l1.65.45.48-.18s3.13-1.29,6.65-6.98l.37-.59c.32-.68.61-1.47.81-2.34,0,0,.27.97.14,2.89l.05.11c.03.07.77,1.59,1.49,4.68.73-.17,1.55-.3,2.45-.39-.53-1.89-2.11-6.8-5.27-11.54-1.83,6.59-5.62,9.93-8.8,11.62h.02s-.12.05-.12.05c-.19.1-.37.19-.56.28-2.19,1.03-4.23,1.44-5.62,1.59,1.5,1.01,4.75,2.78,8.64,2.33Z"/>
      <path class="cls-3" d="m57.42,14.87l.05-.11c-.13-1.92.14-2.89.14-2.89.2.86.49,1.65.81,2.34l.37.59c3.56,5.76,6.62,6.97,6.65,6.98l.48.18,1.65-.45c-.59.59-1.23,1.1-1.76,1.49l-.62.49c3.91.45,7.16-1.33,8.65-2.34-1.39-.15-3.43-.56-5.62-1.59-.18-.09-.37-.18-.55-.28l-.12-.05h.02c-3.18-1.69-6.97-5.03-8.8-11.62-3.16,4.74-4.74,9.65-5.27,11.54.9.08,1.71.22,2.45.39.73-3.1,1.46-4.61,1.49-4.68Z"/>
      <path class="cls-3" d="m51.19,44.8c.62,0,1.71-.12,2.33-.62.38-.31.82-.79,1.26-1.35-.24.13-.49.25-.75.35l-.04-.1h-.01s-.32-.12-.32-.12c-.01,0-1.13-.44-2.37-.38h-.19c-1.25-.06-2.36.37-2.37.38l-.32.13h-.01s-.04.09-.04.09c-.26-.11-.51-.23-.75-.35.44.56.88,1.04,1.26,1.35.61.5,1.69.61,2.31.62Z"/>
      <path class="cls-3" d="m45.35,51.98l-.72-.6c-1.45-1.22-2.46-2.53-3.16-3.65-.79.73-1.24,1.53-1.46,2.31l-.13,1s-.21,2.28,2.29,5.35c1.89-1.42,4.92-2.08,9.02-1.96,4.11-.12,7.13.54,9.02,1.96,2.5-3.07,2.29-5.34,2.29-5.35l-.13-1c-.22-.78-.67-1.58-1.46-2.31-.69,1.12-1.7,2.42-3.16,3.65l-.72.6-.85-1.49c-.9.63-2.58,1.53-4.94,1.74h0s-.04,0-.06,0c-.02,0-.04,0-.06,0h0c-2.36-.22-4.03-1.12-4.94-1.75l-.85,1.49Z"/>
      <path class="cls-3" d="m75.82,43.02l-.58,1.17-.61-.55s-3.55-3.15-8.03-5.47c.05.29.1.59.13.89l.15,1.39-2.06-.98c.09.72.15,1.63.08,2.65,1.29.66,3.65,1.88,5.42,2.8l1.96-1.47c-.28.72-.7,1.46-1.12,2.12l-.19.38c-.06.12-1.36,2.66-5.01,5.86,2.23-.47,6.13-2.02,10-7.09.02-.26.04-.89-.14-1.7Z"/>
      <path class="cls-3" d="m65.51,71.06c-.02,2.48-.85,4.72-.85,4.72-4.35,5.54-12.1,5.7-13.47,5.68-1.36.02-9.12-.14-13.47-5.68,0,0-.83-2.24-.85-4.72,0-.28.01-.56.04-.84-.28,1.04-.4,2.21-.29,3.53.39,4.69,2.95,8,7.6,9.82,3.26,1.28,6.45,1.36,6.97,1.36.52,0,3.71-.08,6.97-1.36,4.65-1.82,7.21-5.12,7.6-9.82.11-1.31-.02-2.49-.29-3.53.03.28.04.56.04.84Z"/>
      <path class="cls-3" d="m31.43,45.96l-.19-.38c-.42-.66-.84-1.4-1.12-2.12l1.96,1.47c1.76-.92,4.13-2.14,5.42-2.8-.07-1.02-.01-1.93.08-2.65l-2.06.98.15-1.39c.03-.31.08-.6.13-.89-4.48,2.32-7.99,5.44-8.03,5.47l-.61.55-.59-1.17c-.18.81-.16,1.44-.14,1.7,3.87,5.07,7.76,6.63,10,7.09-3.65-3.2-4.95-5.74-5.01-5.86Z"/>
      <path class="cls-3" d="m38.45,69.37c.27,4.15,3.91,7.97,12.75,8.12,8.85-.15,12.49-3.97,12.75-8.12.17-2.67-2.32-4.45-2.32-4.45,0,0,.01,0,.02,0-1.43-.98-3.47-1.91-6.28-2.21.93,1.64,1.74,3.54,2,5.48v.03c.02.12.29,3-1.97,4.87-1.51,1.25-3.33,1.53-4.05,1.59v.02s-.07,0-.16,0c-.09,0-.15,0-.16,0v-.02c-.72-.06-2.54-.33-4.05-1.59-2.26-1.87-1.98-4.75-1.97-4.87v-.03c.27-1.94,1.08-3.84,2.01-5.48-2.88.31-4.96,1.28-6.39,2.3-.51.41-2.33,2.05-2.19,4.35Z"/>
      <path class="cls-5" d="m73.75,29.46l-10.14,3.36,1.09,2.65s5.85,2.73,9.83,2.34c3.98-.39,16.78-4.37,16.78-4.37-3.67-.47-14.9-1.01-14.9-1.01l-2.65-2.97Z"/>
      <path class="cls-5" d="m64.31,42.73v.31l-1.72,2.34-.86,1.09,1.87,3.43s1.01,2.26,2.19,1.25c1.17-1.01,4.45-5.38,4.45-5.38-.55-.47-5.93-3.04-5.93-3.04Z"/>
      <path class="cls-5" d="m73.13,51l.23-2.73c-1.56,1.56-6.48,3.98-6.48,3.98l11.24,6.09-.55-1.33-4.45-6.01Z"/>
      <path class="cls-5" d="m64.78,22.88l-6.45-6.97c-1.14,1.98-1.66,4.68-1.66,4.68l2.6.94,3.02,2.18,2.5-.83Z"/>
      <path class="cls-5" d="m77.47,12.48l-9.16-.1-3.95,3.23s4.47,3.64,6.45,3.64c0,0,6.66-3.54,6.66-6.76Z"/>
      <path class="cls-5" d="m66.13,31c.31-1.66,1.87-3.85,1.87-3.85-4.32,1.3-7.18,3.23-7.18,3.23l1.35,2.08,3.95-1.46Z"/>
      <path class="cls-5" d="m37.7,35.47l1.09-2.65-10.14-3.36-2.65,2.97s-11.24.55-14.9,1.01c0,0,12.8,3.98,16.78,4.37,3.98.39,9.83-2.34,9.83-2.34Z"/>
      <path class="cls-5" d="m38.09,43.04v-.31s-5.38,2.58-5.93,3.04c0,0,3.28,4.37,4.45,5.38,1.17,1.01,2.18-1.25,2.18-1.25l1.87-3.43-.86-1.09-1.72-2.34Z"/>
      <path class="cls-5" d="m29.27,51l-4.45,6.01-.55,1.33,11.24-6.09s-4.92-2.42-6.48-3.98l.23,2.73Z"/>
      <path class="cls-5" d="m37.62,22.88l2.5.83,3.02-2.18,2.6-.94s-.52-2.71-1.66-4.68l-6.45,6.97Z"/>
      <path class="cls-5" d="m31.59,19.24c1.98,0,6.45-3.64,6.45-3.64l-3.95-3.23-9.16.1c0,3.23,6.66,6.76,6.66,6.76Z"/>
      <path class="cls-5" d="m36.27,31l3.95,1.46,1.35-2.08s-2.86-1.92-7.18-3.23c0,0,1.56,2.19,1.87,3.85Z"/>
      <path class="cls-5" d="m48.31,72.31s2.65,1.56,2.89-8.04c0,0,1.48,3.51,2.73,3.04.88-.33.55-2.97-1.64-6.48,0,0,2.58,1.56,3.51,5.31.94,3.75,1.25,5.38-.94,6.24-2.18.86-4.92,1.01-4.92,1.01,0,0-1.56.39-2.03-1.09"/>
      <path class="cls-7" d="m99.44,31.57l.8-1.34c-.25-.15-5.77-3.35-14.67-2.89,2.58-2.62,4.85-3.78,4.88-3.79l-.35-.7c-.12.06-2.79,1.41-5.68,4.57-.6.05-1.22.12-1.85.21-5.75.8-11.16,1.94-14.88,2.82,1.7-1.87,5.28-5.18,11.42-8.25l-.35-.7c-7.36,3.68-11.07,7.64-12.38,9.27-2.27.55-3.64.94-3.68.95l.42,1.5c.06-.02,4.62-1.29,10.88-2.54l2,1.92-6.85,4.11.4.67,7.19-4.31c7.27,0,15.9.62,15.99.62l.06-.78c-.09,0-8.71-.62-16-.63l-1.86-1.79c2.44-.47,5.1-.93,7.85-1.31,10.08-1.4,16.6,2.36,16.66,2.4Z"/>
      <path class="cls-7" d="m78.05,49.44c1.29-.41,4.07-1.06,7.44-.63l.1-.77c-4.03-.52-7.18.43-8.25.82-.76-.61-1.57-1.23-2.43-1.85l-.9,1.27c8.76,6.19,11.31,12.72,11.33,12.79l1.46-.55c-.09-.25-2.13-5.45-8.75-11.07Z"/>
      <rect class="cls-7" x="63.21" y="45.67" width="6.33" height=".78" transform="translate(-1.87 2.81) rotate(-2.39)"/>
      <polygon class="cls-7" points="73.6 48.48 72.82 48.48 72.82 51.21 78.82 59.27 79.45 58.81 73.6 50.95 73.6 48.48"/>
      <path class="cls-7" d="m58.24,21.09l1.21.98c.66-.82,1.35-1.63,2.06-2.41l-1.16-1.04c-.73.81-1.44,1.64-2.11,2.48Z"/>
      <path class="cls-7" d="m68.47,13.02l8.65-.41-.04-.78-7.58.36c8.89-7.01,17.05-9.84,17.15-9.87l-.5-1.48c-.43.15-9.85,3.41-19.65,11.79,1.58-5.47,4.02-8.72,4.05-8.76l-.62-.47c-.12.16-2.9,3.87-4.48,10.16-.64.57-1.27,1.16-1.91,1.77l1.08,1.12c1.28-1.23,2.57-2.37,3.85-3.43Z"/>
      <path class="cls-7" d="m23.65,21.49l-.35.7c6.14,3.07,9.72,6.39,11.42,8.25-3.72-.88-9.13-2.02-14.88-2.82-.63-.09-1.25-.16-1.85-.21-2.89-3.16-5.56-4.51-5.68-4.57l-.35.7s2.3,1.17,4.88,3.79c-8.91-.46-14.42,2.73-14.67,2.89l.8,1.34c.06-.04,6.58-3.79,16.66-2.4,2.74.38,5.41.84,7.85,1.31l-1.86,1.79c-7.28,0-15.91.62-16,.63l.06.78c.09,0,8.72-.62,15.99-.62l7.19,4.31.4-.67-6.85-4.11,2-1.92c6.27,1.25,10.82,2.52,10.88,2.54l.42-1.5s-1.41-.39-3.68-.95c-1.31-1.62-5.02-5.58-12.38-9.27Z"/>
      <path class="cls-7" d="m27.49,47.01c-.87.61-1.68,1.23-2.43,1.85-1.07-.39-4.21-1.33-8.25-.82l.1.77c3.37-.43,6.14.22,7.44.63-6.62,5.62-8.65,10.83-8.75,11.07l1.46.55c.02-.07,2.58-6.6,11.33-12.79l-.9-1.27Z"/>
      <rect class="cls-7" x="35.63" y="42.89" width=".78" height="6.33" transform="translate(-11.5 80.12) rotate(-87.61)"/>
      <polygon class="cls-7" points="28.8 50.95 22.95 58.81 23.58 59.27 29.58 51.21 29.58 48.48 28.8 48.48 28.8 50.95"/>
      <path class="cls-7" d="m40.89,19.66c.71.79,1.4,1.6,2.06,2.41l1.21-.98c-.68-.84-1.39-1.67-2.11-2.48l-1.16,1.04Z"/>
      <path class="cls-7" d="m25.31,11.83l-.04.78,8.65.41c1.28,1.05,2.58,2.19,3.85,3.43l1.08-1.12c-.64-.61-1.27-1.2-1.91-1.77-1.58-6.29-4.36-10-4.48-10.16l-.62.47s2.47,3.29,4.05,8.76C26.1,4.25,16.68.99,16.25.84l-.5,1.48c.1.03,8.26,2.86,17.15,9.87l-7.58-.36Z"/>
      <path class="cls-1" d="m50.73,79.28c4-.04,12.8-2.6,13.01-7.49.21-4.89-8.01-6.24-8.01-6.24,0,0,1.6,5.09-.42,6.87-5.2,4.58-8.74-1.04-8.74-1.04-2.6,3.33-8.22,2.39-8.22,2.39,0,0,2.91,5.62,12.38,5.51Z"/>
      <path class="cls-1" d="m41.73,82.54c-.76-.54-1.51-1.18-2.23-1.91.03.05.61,1.05,2.23,1.91Z"/>
      <path class="cls-1" d="m65.09,69.6l-2.91,6.55-9.26,3.54s1.35,4.06-4.68,4.16c-3.08.05-5.15-.59-6.51-1.31,2.97,2.12,6.16,2.87,9.15,2.91.7-.28,1.79-.56,3.36-.9,9.05-1.95,10.53-9.13,10.53-9.13-.23-2.44-.02-4.36.33-5.82-.01,0-.02,0-.02,0Z"/>
      <path class="cls-1" d="m49.69,55.03c3.95-1.14,9.68-.21,9.68-.21,2.29-4.6,0-5.72,0-5.72l-1.98,2.08-.21-3.02s-1.66,2.08-4.27,3.23c-2.6,1.14-6.71-.9-6.71-.9,0,0,1.9,1.86.86,3.01-1.04,1.14-3.8,2.08-3.8,2.08,0,0,2.47.6,6.42-.55Z"/>
      <path class="cls-1" d="m47.4,35.55s2.09.68.18-.23c-1.95-.94-3.86-2.67-3.86-2.67,0,0-.81-.08-.94.31s.68,4.08,1.48,5.12c.81,1.04,1.79,1.59,1.79,1.59l-.57-4.29.39-.45,1.52.62Z"/>
      <path class="cls-1" d="m52.6,44.73c.55-.29,1.2-1.2,1.2-1.2,0,0-1.14-.36-2.76-.31,0,0-.29,1.77-1.56,1.38-1.27-.39.44.73.44.73,0,0,2.13-.31,2.68-.6Z"/>
      <path class="cls-1" d="m46.8,25.82s-.03-.03-.03-.03c0,0,0,0,.03.03Z"/>
      <path class="cls-1" d="m61.7,26.38s-.25,1.87-1.24,3.84c-.23,1.27-.95,2.95-.95,2.95-.62,4.72-3.16,6.55-3.16,6.55l.59-4.49-.94-.59c.43-.25.83-.51,1.19-.77-2.77,1.69-5.83,1.51-5.83,1.51,3.32-1.01,1.58-3.53,1.58-3.53l.63-.84s0,0,0,0c.08.08,1.23,1.7,3.25,1.2,2.03-.51,2.85-4.44,2.88-4.57,0,0,0,0,0,0-.92-1.11-1.77-1.38-1.99-1.43.92-.54,1.59-.7,1.59-.7,0-.01-.03-.02-.06-.04-.92-.58-1.77-.62-2.53-.35,1.7-.69,3.39,0,3.39,0-.81-3.61-3.71-1.89-3.8-1.84.02-.02.04-.05.06-.07,0,0,0,0,0,0,.13-.15.26-.27.39-.38-.07.04-.14.09-.21.15-1.13.86-2.46,2.81-2.42,3.43s1.17-.78,2.03-1.05c.86-.27,1.25,0,1.25,0l-3.08,3.16-1.25,1.91-1.19-.13h-1.36s-1.27.37-2.24-1.82c-.77-1.73-1.26-2.41-1.43-2.62.36.37,1.99,2.05,2.95,2.27.69.15,1.29-.76,1.72-1.96.06.34.2.59.4.63.4.1.9-.56,1.11-1.47.22-.91.07-1.72-.33-1.82-.2-.05-.43.1-.64.38.13-.92.15-1.75.02-2.22,0,0,1.14-.14,4,.47,0,0,.97-.13,1.99.06,1.08-.14,2.1.54,2.75,1.28,1.01,1.13.86,2.89.86,2.89Z"/>
      <path class="cls-1" d="m32.47,45.25l5.93-3.07-.42-2.03c-2.24.99-5.83,3.02-5.83,3.02l.52-1.56c-1.09.7-2.56,1.84-2.56,1.84l1.42,2.12.94-.31Z"/>
      <polygon class="cls-1" points="64.47 40.23 64 42.11 69.69 45.54 72.28 43.45 68.52 40.86 68.91 42.42 64.47 40.23"/>
      <path class="cls-1" d="m65.96,51.82s.99.72,4.36-1.28c3.28-1.95,4.14-5.7,4.14-5.7-4.68,5.77-8.5,6.98-8.5,6.98Z"/>
      <path class="cls-1" d="m28.26,45.15s.86,4.06,5.46,6.63l3.2.16s-4.45-1.48-8.66-6.79Z"/>
      <path class="cls-1" d="m41.45,18.7c2.3-2.52,3.05-4.48,3.27-5.64l-.15,2.36,1.33,4.53,3.03-.78c-1.81-4.29-4.13-7.29-4.13-7.29-3.66,7.29-9.95,9.64-9.95,9.64l2.16.93s.62.44,4.45-3.75Z"/>
      <path class="cls-1" d="m58.15,14.79v-.03c1.67,4.63,6.71,7.99,6.71,7.99l2.7-1.24c-7.99-4.2-9.95-9.64-9.95-9.64,0,0-2.11,3-4.22,7.84l2.65.23,2.11-5.15Z"/>
      <path class="cls-2" d="m37.22,23.49s-3.03-.16-6-1.83c0,0,9.99-2.37,12.69-12.36,0,0,2.65,2.76,4.37,7.65,0,0-2.6-7.96-4.79-9.94,0,0-2.29,7.02-7.39,10.56-5.1,3.54-8.58,3.64-8.58,3.64,0,0,5.23,3.82,9.69,2.28Z"/>
      <path class="cls-2" d="m63.32,14.61c-3.43-5.25-4.53-7.96-4.53-7.96,0,0-2.55,3.75-2.86,5.93,0,0,1.72-2.6,2.55-3.64,0,0,2.76,10.46,13.84,12.54,0,0-.99,1.25-4.89,2.08,0,0,3.38.47,6.82-2.5,0,0-7.49-1.2-10.92-6.45Z"/>
      <path class="cls-2" d="m43.28,45.08l.34.73.37-.73.06-.13.07-.14c.05-.09.1-.18.15-.27.11-.18.22-.35.33-.53.11-.16.23-.32.35-.48,0,.01,0,.02.01.03.1.23.2.45.31.67.22.44.46.87.73,1.28.27.41.56.8.88,1.17.32.37.67.7,1.04,1-.33-.35-.63-.72-.89-1.12-.26-.4-.49-.81-.69-1.24-.2-.43-.38-.87-.53-1.31-.08-.22-.14-.45-.21-.67-.03-.11-.06-.23-.09-.34-.03-.11-.05-.23-.07-.33l-.14-.79-.53.63h0c-.29.34-.56.7-.81,1.07-.1.15-.19.3-.29.45-.11-.29-.21-.58-.3-.87-.17-.55-.3-1.11-.41-1.67-.11-.56-.18-1.14-.24-1.71-.03-.29-.05-.57-.06-.86,0-.14-.01-.29-.01-.43,0-.14,0-.29,0-.42v-.63s-.55.27-.55.27c-.33.16-.66.33-.97.52-.11.06-.21.13-.31.2,0-.02,0-.04,0-.07,0-.27,0-.54.01-.82.02-.27.04-.54.07-.82.04-.27.08-.54.15-.81-.13.25-.24.5-.34.77-.1.26-.19.53-.27.8-.08.27-.15.54-.21.82-.06.28-.11.56-.16.84h0s-.13.9-.13.9l.76-.58.09-.07.1-.07.21-.14c.14-.1.28-.19.43-.27.11-.07.23-.13.34-.2,0,.09,0,.18,0,.26.01.3.03.6.06.9.06.6.14,1.19.25,1.78.11.59.25,1.18.43,1.75.18.58.39,1.15.65,1.7Z"/>
      <path class="cls-2" d="m46.15,55.87c-5.93,1.82-5.41,4.73-5.41,4.73l1.4,2.34,1.09-.68s-2.08-3.63,2.97-5.31,9.47-1.2,11.55-.57c0,0-5.67-2.34-11.6-.52Z"/>
      <path class="cls-2" d="m41.32,46.92s-4.26,3.74.7,9.47c0,0,1.04.8.39-.36-1.51-2.71-1.77-5.91-.26-7.6l-.83-1.51Z"/>
      <path class="cls-2" d="m36.33,37.58s-.35,0-2.65,1.29-6.13,4.53-6.13,4.53l-1.13-1.17s-.51.35-.51,1.99,1.91,3.04,1.91,3.04c0,0,1.95,1.05.82-.08-1.13-1.13-1.6-2.3-1.6-2.3,4.6-3.94,9.05-6.32,9.05-6.32l.23-.98Z"/>
      <path class="cls-2" d="m44.49,22.05c-1.51-.57-3.64,1.14-4.01,2.24-.36,1.09.62,6.09,2.55,7.54,0,0-2.52-4.55-.88-7.23,1.72-2.81,6.03.42,6.03.42,0,0-2.18-2.39-3.69-2.97Z"/>
      <path class="cls-2" d="m48.23,20.18c-4.53.73-4.01,1.4-4.01,1.4l3.28,1.3s-.53-.66,1.38-1.01c-.23.13-.36.31-.34.48.04.3.51.48,1.05.41s.95-.37.91-.66c-.02-.17-.2-.31-.44-.37,2.41-.22,4.45,0,6.29.54l.73-.94s-4.32-1.87-8.84-1.14Z"/>
      <path class="cls-2" d="m51.28,31.49c-.48.03-1.16,2.61-.06,2.57,1.19-.04.4-2.6.06-2.57Z"/>
      <path class="cls-2" d="m57.05,34.03s-5.11,3.71-11.59-.04c0,0,2.42,2.97,5.54,2.93,3.12-.04,6.05-2.89,6.05-2.89Z"/>
      <path class="cls-2" d="m47.51,63.83l-.42-2.08s-6.03.52-8.27,4.06c-2.24,3.54-2.6,6.87,1.56,9.73,4.16,2.86,9.05,1.92,9.05,1.92,0,0-9.16-.73-9.78-7.39-.52-5.57,7.86-6.24,7.86-6.24Z"/>
      <path class="cls-2" d="m37,70.51l-.23-1.72c-4.45,18.03,15.61,16,15.61,16-16.93-.94-15.37-14.28-15.37-14.28Z"/>
      <path class="cls-2" d="m45.38,29.76c.12.86.72,1.52,1.32,1.44.42-.06.75-.47.87-1.03-.57-.68-1.21-1.27-1.91-1.75-.24.33-.35.83-.28,1.34Z"/>
      <path class="cls-2" d="m57.02,29.76c.07-.51-.04-1-.28-1.34-.7.48-1.34,1.07-1.91,1.75.11.56.45.97.86,1.03.6.08,1.2-.58,1.32-1.44Z"/>
      <path class="cls-2" d="m59.52,63.46c-3.95-1.4-5.15-1.4-5.15-1.4l.94,1.3s7.28.52,8.58,4.58c0,0-.42-3.07-4.37-4.47Z"/>
      <path d="m53.56,31.03c2.07,1.44,3.68.35,4.74-.96-.39,1.47-1.23,2.1-1.23,2.1,1.92-.88,2.62-4.49,2.63-4.51,0,0,0,0,0,0-.92-1.11-1.77-1.38-1.99-1.43.92-.54,1.59-.7,1.59-.7,0-.01-.03-.03-.06-.04-3.81-2.4-6.43,4.41-6.43,4.41l-.92.4,1.05,1.56.63-.84Zm2.95-3.97c.65.32,1.12,1.13,1.12,2.08,0,1.23-.78,2.23-1.74,2.23-.79,0-1.46-.69-1.67-1.62.71-1.19,1.52-2.07,2.29-2.7Z"/>
      <path d="m102.4,31.82l-.96-1.19c-4.32-5.37-8.9-8.17-15.3-9.36-3.46-.64-7.41-.23-10.13.24.32-.31.52-.53.54-.55l1.28-1.39-1.89.09c-1.35.06-2.83-.21-3.97-.5,4.26-2.18,6.54-5.47,6.65-5.62l.41-.61-.96-.74c6.95-5.1,10.31-10.74,10.46-10.99l.68-1.16h-1.35c-.23-.02-5.63-.06-11.1.93-8.33,1.51-14.14,5.02-16.23,6.44l-1.21-3.24-.85,1.15c-4.19,5.63-6.06,11.78-6.57,13.71h-1.4c-.52-1.93-2.39-8.08-6.57-13.71l-.85-1.15-1.21,3.24c-2.1-1.42-7.9-4.93-16.23-6.44C20.15-.05,14.75,0,14.52,0h-1.35s.68,1.18.68,1.18c.15.25,3.5,5.89,10.46,10.99l-.96.74.41.61c.11.16,2.4,3.45,6.65,5.62-1.14.29-2.62.57-3.97.5l-1.89-.09,1.28,1.39s.22.24.54.55c-2.72-.47-6.67-.89-10.13-.24-6.4,1.19-10.97,3.99-15.3,9.36l-.96,1.19,1.53.07s3.64.18,7.03.46l-2.64,1.67,2.42.15s4.36.28,9.54,2.1c2.61.91,4.42,1.51,5.6,1.88-1.44.84-3.61,2.22-5.72,4l-2.39,2.02,4.66-1.01c-.87.82-1.84,1.88-2.73,3.19-2.25,3.28-4.43,8.79-2.06,16.41l.45,1.44,2.96-3.85c.25.96.65,2.14,1.24,3.02l.87,1.3.52-1.47s1.05-2.89,4.17-4.51c3.25-1.69,7.98-4.04,11.02-5.55.71.12,1.25.15,1.6.15.23,0,.36-.01.4-.02l.2-.02c.34,1.11,1,2.54,2.3,4.14-.58.88-1.34,2.73-.19,5.38-1.32.84-2.61,2.01-3.63,3.46-.37.49-.56.83-.59.89h.01c-1.08,1.88-1.71,4.15-1.49,6.79.44,5.26,3.4,9.11,8.59,11.14,3.38,1.32,6.62,1.45,7.44,1.46h0s.03,0,.07,0c0,0,.02,0,.03,0,.01,0,.02,0,.03,0,.04,0,.06,0,.07,0h0c.82-.01,4.06-.14,7.44-1.46,5.18-2.03,8.15-5.88,8.59-11.14.22-2.63-.41-4.91-1.49-6.78h.01c-.03-.06-.21-.4-.59-.89-1.02-1.46-2.31-2.62-3.63-3.46,1.15-2.64.39-4.49-.19-5.38,1.3-1.6,1.96-3.03,2.3-4.14l.2.02s.17.02.4.02c.34,0,.89-.03,1.6-.15,3.05,1.51,7.77,3.86,11.02,5.55,3.12,1.62,4.16,4.48,4.17,4.51l.52,1.47.87-1.3c.59-.88.98-2.06,1.24-3.02l2.96,3.85.45-1.44c2.37-7.61.19-13.12-2.06-16.41-.89-1.31-1.86-2.36-2.73-3.19l4.66,1.01-2.39-2.02c-2.1-1.78-4.28-3.16-5.72-4,1.18-.37,2.99-.97,5.6-1.88,5.18-1.81,9.5-2.09,9.54-2.1l2.42-.15-2.64-1.67c3.39-.28,6.99-.45,7.03-.46l1.53-.07Zm-28.57-10.66c-1.49,1.01-4.74,2.78-8.65,2.34l.62-.49c.53-.39,1.17-.9,1.76-1.49l-1.65.45-.48-.18s-.51-.2-1.33-.81c1.08-1.71,2.34-2.05,2.78-2.11.22.13.44.26.66.37h-.02s.12.05.12.05c.19.1.37.19.55.28,2.19,1.04,4.24,1.44,5.62,1.59Zm-10.82,17.17s.95,3.25-.25,6.43l-.04-.03c-.31-3-1.44-4.32-1.44-4.32,0,2.11-.45,3.84-.93,5.1-.45.99-1.33,2.55-2.89,4.06l-.04-.06c.55-2.73-.08-3.88-.08-3.88-.81,2.09-1.85,3.34-2.84,4.08-.79.41-1.9.84-3.3.97-1.4-.13-2.51-.56-3.3-.97-.99-.74-2.03-1.99-2.84-4.08,0,0-.63,1.15-.08,3.88l-.04.06c-1.58-1.53-2.46-3.11-2.91-4.1-.48-1.25-.91-2.97-.91-5.05,0,0-1.13,1.32-1.44,4.32l-.04.03c-1.19-3.16-.26-6.39-.25-6.43l.51-1.69-2.41,1.15c.79-2.98,2.81-4.62,3.99-5.35.1.14.19.27.28.39.07,1.03.48,4.54,2.69,7.37.68,1.08,1.65,2.53,2.58,3.64,2.09,3.22,5.42,2.67,5.42,2.67-.42,1.4-1.2,1.98-1.2,1.98,4.42-.52,6.03-6.09,6.03-6.09,1.09,1.3,1.3,2.5,1.3,2.5,1.82-4.06,1.56-7.18,1.56-7.18.68.47,1.82,1.56,1.82,1.56-.26-2.39-.83-4.68-.83-4.68l1.51.42c-.73-1.3-1.72-2.57-1.72-2.57,1.18.73,3.21,2.37,3.99,5.35l-2.41-1.15.51,1.69Zm-23.74-18.15c-.79-1.2-1.69-1.85-2.42-2.19,1.33-.97,2.68-2.26,3.87-3.97.44.01,1.32.25,2.33,1.68-1.41,2.13-2.73,3.55-3.78,4.48Zm4.84-3.26c.24.71.54,1.71.85,2.99-.37.11-.82.27-1.31.5-.24-.3-.61-.77-1.13-1.36.51-.62,1.05-1.32,1.6-2.13Zm-2.69,3.36c.27.34.53.67.77.99-.4.29-.81.63-1.19,1.04-.16.16-.28.3-.38.41l-1.8-.2c.67-.46,1.57-1.17,2.6-2.25Zm12.7,21.15c-.22.12-.45.23-.69.33h0c-.53-.13-1.35-.29-2.24-.24-.89-.05-1.7.11-2.24.25h0c-.24-.11-.47-.22-.69-.34-.47-.55-.84-1.14-1.13-1.73.53.76,1.01,1.24,1.01,1.24-.09-1.24.31-1.86.31-1.86.4.74.8,1.31,1.02,1.59-.23.14-.49.33-.49.33.55-.14,1.35-.18,1.35-.18h0c.35-.02.68-.02.84-.02.17,0,.5,0,.84.02h0s.8.04,1.35.18c0,0-.25-.19-.49-.33.22-.28.62-.85,1.02-1.59,0,0,.4.62.31,1.86,0,0,.48-.49,1.02-1.26-.29.6-.66,1.19-1.14,1.75Zm.66,1.41c-.44.56-.88,1.04-1.26,1.35-.62.5-1.71.62-2.33.62-.62,0-1.7-.12-2.31-.62-.38-.31-.82-.79-1.26-1.35.24.13.49.25.75.35l.04-.1h.01s.32-.12.32-.12c.01,0,1.12-.44,2.37-.38h.19c1.24-.06,2.36.37,2.37.38l.32.13h.01s.04.09.04.09c.26-.11.51-.23.75-.35Zm.26-3.56l-.02-.05-.16-2.06-.42.39c-.15.04-1.23.34-3.24.35-2.01,0-3.09-.3-3.24-.35l-.42-.39-.16,2.06-.02.05c-.5-.71-.82-1.45-1.02-2.12-.1-.53-.15-1-.18-1.38.45.25,1.07.56,1.88.89,1.42.58,2.64.61,3.17.59.53.02,1.75,0,3.17-.59.81-.33,1.43-.64,1.88-.89-.02.37-.07.84-.17,1.35-.2.68-.53,1.43-1.03,2.15Zm8.08-19.09c-1.04-.93-2.35-2.35-3.77-4.49,1-1.43,1.88-1.67,2.33-1.68,1.19,1.71,2.54,3,3.87,3.97-.74.34-1.63.99-2.43,2.19Zm.46,2.33l-1.8.2c-.09-.11-.22-.25-.38-.42-.38-.4-.78-.74-1.19-1.03.24-.32.5-.66.77-.99,1.03,1.08,1.93,1.79,2.6,2.25Zm-3.69-3.48c-.52.6-.9,1.06-1.13,1.36-.49-.23-.94-.39-1.31-.5.3-1.28.6-2.28.85-2.99.55.8,1.08,1.51,1.6,2.13ZM77.05,2.48c2.92-.53,5.87-.76,7.95-.85-2.82,1.58-5.75,3.47-7.97,5.36,3.19-1.84,6.52-3.24,8.26-3.93-1.76,2.23-4.74,5.5-8.96,8.44l-.87.61,1.42,1.11c-.97,1.17-3.48,3.83-7.28,5.27-.24-.1-.49-.21-.73-.32-1.42-.67-2.69-1.53-3.81-2.57,3.85-4.13,7.83-7.82,7.83-7.82-2.49,1.68-4.64,3.34-6.47,4.89l1.05-4.89s-1.31,2.86-2.02,5.73c-.46.4-.89.79-1.3,1.17-1.39-1.54-2.49-3.4-3.3-5.58,1.17-.85,7.24-4.97,16.2-6.6Zm-18.31,5.14c.57,2.05,1.33,3.79,2.2,5.26-.66.18-1.48.64-2.31,1.69l-.22-.36c-.32-.68-.61-1.47-.81-2.34,0,0-.27.97-.14,2.89l-.05.11c-.03.07-.77,1.59-1.49,4.68-.73-.17-1.55-.3-2.45-.39.53-1.89,2.11-6.8,5.27-11.54Zm-7.55,13c2.34,0,4.15.32,5.54.78-.41.18-.77.42-1.06.67-.38-.07-1.46-.26-2.87-.39,0,0,1.69.84,1.4,2.62-.24.63-.33,1.1-.33,1.1,0,0,1.25-1.74,3.43-2.67,1.03-.44,1.9-.16,2.56.3.21.17.38.33.5.46.11.12.22.26.33.39,1.19,1.53.51,4.55-.42,6.53-.56,1-1.39,2.17-2.52,3.02,0,0,.66.16,1.25-.06-.18,1.33-.74,3.94-2.43,6.02.91-2.35.78-4.51.77-4.64v-.97s-1.67,1.19-3.4,1.89c-1.15.47-2.14.52-2.61.51,0,0-.05,0-.14,0-.09,0-.14,0-.14,0-.47,0-1.47-.04-2.61-.51-1.72-.7-2.51-1.3-2.51-1.31l-.83-.57-.05.97c0,.13-.14,2.28.76,4.63-1.69-2.07-2.24-4.67-2.43-6,.59.21,1.25.06,1.25.06-1.14-.84-1.97-2.01-2.52-3.02-.93-1.98-1.61-5-.42-6.53.17-.22.35-.42.53-.6.04-.04.09-.08.14-.13.67-.52,1.6-.89,2.72-.42,2.18.94,3.43,2.67,3.43,2.67,0,0-.36-1.92-1.6-3.16-.31-.31-.76-.64-1.27-.86,1.38-.45,3.2-.77,5.56-.77Zm-7.55-13c3.16,4.74,4.74,9.65,5.27,11.54-.9.08-1.71.22-2.45.39-.73-3.1-1.46-4.61-1.49-4.68l-.05-.11c.14-1.92-.14-2.89-.14-2.89-.2.86-.49,1.65-.81,2.34l-.22.36c-.84-1.05-1.65-1.5-2.31-1.69.87-1.47,1.63-3.21,2.2-5.26Zm-18.14,5.59l1.42-1.11-.87-.61c-4.22-2.94-7.2-6.21-8.96-8.44,1.74.69,5.07,2.09,8.26,3.93-2.22-1.89-5.16-3.78-7.97-5.36,2.08.1,5.03.32,7.95.85,8.96,1.63,15.03,5.75,16.2,6.6-.81,2.18-1.92,4.05-3.31,5.58-.41-.38-.84-.77-1.3-1.17-.71-2.87-2.02-5.73-2.02-5.73l1.05,4.89c-1.83-1.55-3.98-3.21-6.47-4.89,0,0,3.98,3.69,7.83,7.82-1.1,1.02-2.35,1.87-3.75,2.54-.27.13-.53.24-.79.35-3.8-1.43-6.31-4.1-7.28-5.27Zm8.68,6.36c.18-.09.37-.18.56-.28l.12-.05h-.02c.22-.12.44-.25.66-.38.45.07,1.7.4,2.78,2.11-.82.6-1.32.81-1.33.81l-.48.18-1.65-.45c.59.59,1.23,1.1,1.77,1.49l.61.49c-3.89.44-7.15-1.33-8.64-2.33,1.39-.15,3.43-.56,5.62-1.59Zm-14.9,15.53c-.29-.1-.59-.2-.9-.31-3.11-1.09-5.9-1.64-7.73-1.92l2.58-1.63-2.24-.23c-1.91-.2-4.22-.36-6.07-.48,1.66-.49,4.33-1.23,6.27-1.5,0,0-4.2.08-7.92,1.28,3.78-4.26,7.73-6.47,13.26-7.5,3.35-.62,7.31-.15,9.92.31,2.55.57,7.06,1.93,13.28,5.1.22,1.03.57,2.02.97,2.87-.28.17-.6.39-.94.64-1.29-.37-2.55-.71-3.75-1.01-.66-.78-2.61-2.96-4.96-4.6l3.8,4.31c-9.02-2.22-15.14-2.75-15.14-2.75,2.31.63,5.39,1.52,8.39,2.4l-1.11,1.92,1.91-1.69c4.26,1.25,8.21,2.43,9.39,2.78-.47.53-.94,1.14-1.34,1.86-1.21.36-3.43.98-6.22,1.56-2.55.53-7.7-.49-11.45-1.4Zm12.37,4.06c-1.87,1.23-3.33,2.39-4.11,3.03l-.76-1.53c1.43-.62,3.06-1.16,4.87-1.51Zm2.11,13.55c-2.82,1.4-6.28,3.14-8.87,4.48l2.21-3.92-4.63,5.58c-.88.8-1.51,1.64-1.93,2.33-.49-1.33-.7-2.76-.71-2.78l-.26-1.84-3.25,4.24c-1.21-5.02-.46-9.56,2.23-13.52,2.22-3.27,5.01-4.91,5.04-4.93l1.72-.99c.2-.1.4-.2.61-.31l-.04.09c-.96,2.11-.68,3.85-.67,3.92l.03.15.09.12c.67.89,1.34,1.68,2,2.38-1.81,1.81-3.98,4.61-3.98,4.61,1.27-1.19,3.86-3.13,4.77-3.81,2.21,2.13,4.32,3.31,6.05,3.96-.13.08-.27.15-.41.23Zm-7.33-7.98c-.02-.26-.04-.89.14-1.7l.59,1.17.61-.55s3.54-3.15,8.03-5.47c-.05.29-.1.59-.13.89l-.15,1.39,2.06-.98c-.09.72-.15,1.63-.08,2.65-1.29.66-3.65,1.88-5.42,2.8l-1.96-1.47c.28.72.7,1.46,1.12,2.12l.19.38c.06.12,1.36,2.66,5.01,5.86-2.24-.47-6.13-2.02-10-7.09Zm10.43,5.8c-2.25-2.05-3.49-3.77-4.01-4.6,1.56-.82,3.53-1.83,4.81-2.48.13.73.35,1.49.67,2.25l-3.37-.04,3.82.97.37.7.93-.86c-.61,1.13-1.63,2.63-3.22,4.06Zm27.79,25.26s.83-2.24.85-4.72c0-.28-.01-.56-.04-.84.28,1.04.4,2.21.29,3.53-.39,4.69-2.95,8-7.6,9.82-3.26,1.28-6.45,1.36-6.97,1.36-.52,0-3.71-.08-6.97-1.36-4.65-1.82-7.21-5.12-7.6-9.82-.11-1.31.02-2.49.29-3.53-.03.28-.04.56-.04.84.02,2.48.85,4.72.85,4.72,4.35,5.54,12.1,5.7,13.47,5.68,1.36.02,9.12-.14,13.47-5.68Zm-3.01-10.86s-.01,0-.02,0c0,0,2.49,1.79,2.32,4.45-.02.33-.07.65-.13.97-1.16-2.75-4.82-3.81-4.82-3.81,1.73,1.52,2.81,2.89,2.42,5.5-.66,4.43-6.74,5.16-6.74,5.16.02,0,.03,0,.05,0-1.07.17-2.25.27-3.53.29-8.85-.15-12.49-3.97-12.75-8.12-.15-2.3,1.68-3.95,2.19-4.35,1.44-1.01,3.51-1.99,6.39-2.3-.93,1.64-1.73,3.54-2,5.48v.03c-.02.12-.29,3,1.97,4.87,1.51,1.25,3.33,1.53,4.05,1.59v.02s.07,0,.16,0c.09,0,.15,0,.16,0v-.02c.72-.06,2.54-.33,4.05-1.59,2.25-1.87,1.98-4.75,1.97-4.87v-.03c-.27-1.94-1.08-3.84-2.01-5.48,2.82.3,4.86,1.23,6.28,2.21Zm-7.89-7.6h0s-3.16-.35-6.22.1l2.95.63-2.56,3.03c-2.27.11-4.14.59-5.66,1.23-.5-1.07-.6-1.95-.53-2.64h0s0-.02,0-.04c0-.03,0-.06.01-.09.05-.29.25-1.03,1.14-1.77,1.07-.9,3.35-1.92,8.1-1.8h0c.06,0,.12,0,.18,0,.06,0,.12,0,.18,0h0c4.75-.13,7.03.9,8.1,1.79.89.74,1.09,1.48,1.14,1.77,0,.03,0,.06.01.09,0,.02,0,.03,0,.04h0c.07.69-.03,1.57-.53,2.64.16-3.65-3.65-4.7-6.34-4.99Zm2.06,11.07c.01.16.13,2.22-1.42,3.5-1.21,1-2.73,1.2-3.22,1.24-.5-.04-2-.23-3.21-1.24-1.55-1.29-1.43-3.35-1.42-3.5.38-2.73,2.02-5.44,3.38-7.3l1.25-1.54,1.27,1.57c1.36,1.86,2.98,4.56,3.36,7.28Zm4.4-12.01c-1.89-1.42-4.92-2.08-9.02-1.96-4.11-.12-7.14.54-9.02,1.96-2.5-3.07-2.29-5.34-2.29-5.35l.13-1c.22-.78.67-1.58,1.46-2.31.69,1.12,1.7,2.42,3.16,3.65l.72.6.85-1.49c.9.63,2.58,1.53,4.94,1.74h0s.04,0,.06,0c.02,0,.04,0,.06,0h0c2.36-.22,4.03-1.12,4.94-1.75l.85,1.49.72-.6c.23-.2.45-.39.66-.59,1.82.49,1.69,2.22,1.69,2.22.69-2.24.09-3.24-.37-3.65.46-.57.85-1.12,1.17-1.63.79.73,1.24,1.53,1.46,2.31l.13,1s.21,2.28-2.29,5.35Zm5.3-5.86c-1.59-1.43-2.6-2.93-3.22-4.06l.93.86.37-.7,3.82-.97-3.37.04c.32-.76.54-1.52.67-2.25,1.28.66,3.25,1.67,4.81,2.48-.53.83-1.76,2.55-4.01,4.6Zm5.44-4.57l.19-.38c.42-.66.84-1.4,1.12-2.12l-1.96,1.47c-1.76-.92-4.13-2.14-5.42-2.8.07-1.02.01-1.93-.08-2.65l2.06.98-.15-1.39c-.03-.31-.08-.6-.13-.89,4.48,2.32,7.99,5.44,8.03,5.47l.61.55.58-1.17c.18.81.16,1.43.14,1.7-3.87,5.07-7.76,6.63-10,7.09,3.65-3.2,4.95-5.74,5.01-5.86Zm-.23-6.8c1.81.35,3.44.89,4.87,1.51l-.76,1.53c-.78-.65-2.23-1.8-4.11-3.03Zm13.1,8.12c2.69,3.96,3.44,8.5,2.23,13.52l-3.25-4.24-.26,1.84s-.21,1.45-.71,2.78c-.42-.69-1.05-1.53-1.93-2.33l-4.63-5.58,2.21,3.92c-2.6-1.35-6.05-3.08-8.87-4.48-.14-.08-.28-.15-.41-.23,1.73-.65,3.84-1.83,6.05-3.96.91.68,3.5,2.63,4.77,3.81,0,0-2.17-2.8-3.98-4.61.66-.7,1.33-1.49,2-2.38l.09-.12.03-.15c.01-.07.29-1.82-.67-3.92l-.04-.09c.21.1.41.2.61.31l1.72.99s2.82,1.65,5.04,4.93Zm13.63-16.75c-1.85.12-4.16.28-6.07.48l-2.24.23,2.58,1.63c-1.83.28-4.61.83-7.73,1.92-.31.11-.61.21-.9.31-3.74.91-8.89,1.93-11.45,1.4-2.79-.58-5.02-1.2-6.22-1.56-.4-.72-.87-1.34-1.34-1.86,1.18-.35,5.13-1.53,9.39-2.78l1.91,1.69-1.11-1.92c3-.88,6.09-1.76,8.39-2.4,0,0-6.12.53-15.14,2.75l3.8-4.31c-2.35,1.64-4.3,3.82-4.96,4.6-1.21.31-2.46.64-3.75,1.01-.34-.26-.66-.47-.94-.64.4-.85.75-1.84.97-2.87,6.23-3.17,10.73-4.53,13.28-5.1,2.61-.47,6.58-.94,9.92-.31,5.54,1.03,9.49,3.24,13.26,7.5-3.71-1.19-7.92-1.28-7.92-1.28,1.94.27,4.6,1.01,6.27,1.5Z"/>
      <path d="m43.16,25.49s-.05.02-.06.04c0,0,.67.16,1.59.7-.21.05-1.07.32-1.99,1.43,0,0,0,0,0,0,0,.02.71,3.63,2.63,4.51,0,0-.84-.62-1.23-2.1,1.05,1.31,2.67,2.39,4.74.96l.63.84,1.05-1.56-.92-.4s-2.62-6.81-6.43-4.41Zm3.35,5.89c-.96,0-1.74-1-1.74-2.23,0-.95.47-1.76,1.12-2.08.77.63,1.58,1.5,2.29,2.7-.21.93-.88,1.62-1.67,1.62Z"/>
    </g>
    <g>
      <path class="cls-3" d="m75.82,42.84l-.58,1.17-.61-.55s-3.55-3.15-8.03-5.47c.05.29.1.59.13.89l.15,1.39-2.06-.98c.09.72.15,1.63.08,2.65,1.29.66,3.65,1.88,5.42,2.8l1.96-1.47c-.28.72-.7,1.46-1.12,2.12l-.19.38c-.06.12-1.36,2.66-5.01,5.86,2.23-.47,6.13-2.02,10-7.09.02-.26.04-.89-.14-1.7Z"/>
      <path class="cls-3" d="m31.43,45.77l-.19-.38c-.42-.66-.84-1.4-1.12-2.12l1.96,1.47c1.76-.92,4.13-2.14,5.42-2.8-.07-1.02-.01-1.93.08-2.65l-2.06.98.15-1.39c.03-.31.08-.6.13-.89-4.48,2.32-7.99,5.44-8.03,5.47l-.61.55-.59-1.17c-.18.81-.16,1.44-.14,1.7,3.87,5.07,7.76,6.63,10,7.09-3.65-3.2-4.95-5.74-5.01-5.86Z"/>
      <path class="cls-1" d="m66.43,51.5s.99.72,4.36-1.28c3.28-1.95,4.14-5.7,4.14-5.7-4.68,5.77-8.5,6.98-8.5,6.98Z"/>
      <path class="cls-1" d="m28.73,44.84s.86,4.06,5.46,6.63l3.2.16s-4.45-1.48-8.66-6.79Z"/>
      <path class="cls-1" d="m32.94,44.94l5.93-3.07-.42-2.03c-2.24.99-5.83,3.02-5.83,3.02l.52-1.56c-1.09.7-2.56,1.84-2.56,1.84l1.42,2.12.94-.31Z"/>
      <polygon class="cls-1" points="64.94 39.92 64.47 41.79 70.16 45.23 72.75 43.14 68.99 40.55 69.38 42.11 64.94 39.92"/>
      <path class="cls-2" d="m36.33,37.49s-.35,0-2.65,1.29-6.13,4.53-6.13,4.53l-1.13-1.17s-.51.35-.51,1.99,1.91,3.04,1.91,3.04c0,0,1.95,1.05.82-.08-1.13-1.13-1.6-2.3-1.6-2.3,4.6-3.94,9.05-6.32,9.05-6.32l.23-.98Z"/>
      <g>
        <path d="m66.6,38.07c4.48,2.32,7.99,5.44,8.03,5.47l.61.55.58-1.17c.18.81.16,1.43.14,1.7-3.87,5.07-7.76,6.63-10,7.09,3.65-3.2,4.95-5.74,5.01-5.86l.19-.38c.42-.66.84-1.4,1.12-2.12l-1.96,1.47c-1.76-.92-4.13-2.14-5.42-2.8.07-1.02.01-1.93-.08-2.65l2.06.98-.15-1.39c-.03-.31-.08-.6-.13-.89m-1.81-2.44l.46,2.47-2.06-.98.31,2.42c.1.8.13,1.6.07,2.39l-.06.88.78.4c1.2.61,3.4,1.74,5.13,2.65-.58.9-1.91,2.72-4.34,4.86l-3.81,3.34,4.96-1.03c2.71-.56,6.78-2.34,10.78-7.59l.24-.31.03-.39c.03-.37.05-1.13-.16-2.09l-.8-3.68-1.5,3c-1.28-1.05-4.17-3.29-7.6-5.07l-2.42-1.25h0Z"/>
        <path d="m35.8,38.07c-.05.29-.1.59-.13.89l-.15,1.39,2.06-.98c-.09.72-.15,1.63-.08,2.65-1.29.66-3.65,1.88-5.42,2.8l-1.96-1.47c.28.72.7,1.46,1.12,2.12l.19.38c.06.12,1.36,2.66,5.01,5.86-2.24-.47-6.13-2.02-10-7.09-.02-.26-.04-.89.14-1.7l.59,1.17.61-.55s3.54-3.15,8.03-5.47m1.81-2.44l-2.42,1.25c-3.45,1.79-6.33,4.02-7.6,5.07l-1.5-2.99-.81,3.66c-.21.97-.19,1.73-.16,2.1l.03.39.23.31c4,5.25,8.07,7.02,10.78,7.59l4.96,1.03-3.81-3.34c-2.44-2.13-3.77-3.96-4.34-4.86,1.73-.9,3.93-2.04,5.13-2.65l.78-.4-.06-.88c-.06-.78-.03-1.59.07-2.39l.31-2.42-2.06.98.46-2.47h0Z"/>
      </g>
    </g>
  </g>
  <g>
    <polygon points="81.15 57.85 81.15 51.77 79.2 51.77 79.2 49.81 69.2 49.81 69.2 51.77 68.14 51.77 68.14 49.81 58.39 49.81 58.02 49.81 50.8 49.81 50.8 51.08 50.44 51.08 49.53 51.08 49.17 51.08 49.17 49.81 40.68 49.81 40.32 49.81 31.83 49.81 31.83 51.77 30.77 51.77 30.77 49.81 20.77 49.81 20.77 51.77 18.82 51.77 18.82 69.6 24.9 69.6 24.9 63.73 26.65 63.73 26.65 69.6 32.38 69.6 32.73 69.6 36.24 69.6 36.75 69.6 39.54 69.6 40.6 69.6 44.5 69.6 46.11 69.6 50 69.6 51.07 69.6 53.31 69.6 54.37 69.6 57.16 69.6 58.78 69.6 59.92 69.6 60.43 69.6 62.67 69.6 63.19 69.6 67.59 69.6 67.59 69.05 68.14 69.05 68.14 67.64 69.2 67.64 69.2 69.6 79.2 69.6 79.2 67.64 81.15 67.64 81.15 61.56 75.07 61.56 75.07 63.52 73.32 63.52 73.32 55.89 75.07 55.89 75.07 57.85 81.15 57.85"/>
    <g>
      <path class="cls-2" d="m29.69,68.52h-1.96v-5.87h-3.92v5.87h-3.92v-15.66h1.96v-1.96h7.83v1.96h1.96v15.66h-1.96Zm-3.92-9.79h1.96v-3.92h-3.92v3.92h1.96Z"/>
      <path class="cls-2" d="m34.18,62.28h-1.26v-11.38h6.32v1.26h1.26v5.06h-1.26v1.26h-3.79v3.79h-1.26Zm2.53-6.32h1.26v-2.53h-2.53v2.53h1.26Z"/>
      <path class="cls-2" d="m43.03,62.28h-1.26v-11.38h6.32v1.26h1.26v5.06h-1.26v1.26h-3.79v3.79h-1.26Zm2.53-6.32h1.26v-2.53h-2.53v2.53h1.26Z"/>
      <path class="cls-2" d="m55.68,62.28h-3.79v-1.26h-1.26v-2.53h2.53v1.26h2.53v-1.26h-1.26v-1.26h-2.53v-1.26h-1.26v-3.79h1.26v-1.26h5.06v1.26h1.26v2.53h-2.53v-1.26h-2.53v1.26h1.26v1.26h2.53v1.26h1.26v3.79h-1.26v1.26h-1.26Z"/>
      <path class="cls-2" d="m65.79,62.28h-6.32v-11.38h7.59v2.53h-5.06v1.26h2.53v2.53h-2.53v2.53h5.06v2.53h-1.26Z"/>
      <path class="cls-2" d="m76.16,68.52h-5.87v-1.96h-1.96v-13.71h1.96v-1.96h7.83v1.96h1.96v3.92h-3.92v-1.96h-3.92v9.79h3.92v-1.96h3.92v3.92h-1.96v1.96h-1.96Z"/>
      <path class="cls-2" d="m35.12,68.52h-1.65v-.55h-.55v-3.86h.55v-.55h2.2v.55h.55v1.1h-1.1v-.55h-1.1v2.75h1.1v-.55h1.1v1.1h-.55v.55h-.55Z"/>
      <path class="cls-2" d="m38.97,68.52h-1.65v-.55h-.55v-3.86h.55v-.55h2.2v.55h.55v3.86h-.55v.55h-.55Zm-.55-1.1h.55v-2.75h-1.1v2.75h.55Z"/>
      <path class="cls-2" d="m44.48,68.52h-.55v-3.86h-.55v3.86h-1.1v-3.86h-.55v3.86h-1.1v-4.41h.55v-.55h3.3v.55h.55v4.41h-.55Z"/>
      <path class="cls-2" d="m49.43,68.52h-.55v-3.86h-.55v3.86h-1.1v-3.86h-.55v3.86h-1.1v-4.41h.55v-.55h3.3v.55h.55v4.41h-.55Z"/>
      <path class="cls-2" d="m52.74,68.52h-1.65v-.55h-.55v-4.41h1.1v3.86h1.1v-3.86h1.1v4.41h-.55v.55h-.55Z"/>
      <path class="cls-2" d="m57.15,68.52h-.55v-3.86h-1.1v3.86h-1.1v-4.41h.55v-.55h2.2v.55h.55v4.41h-.55Z"/>
      <path class="cls-2" d="m58.8,68.52h-.55v-4.96h1.1v4.96h-.55Z"/>
      <path class="cls-2" d="m61.55,68.52h-.55v-3.86h-1.1v-1.1h3.3v1.1h-1.1v3.86h-.55Z"/>
      <path class="cls-2" d="m65.96,68.52h-2.2v-1.1h2.2v-.55h-1.65v-.55h-.55v-2.75h1.1v2.2h1.1v-2.2h1.1v4.41h-.55v.55h-.55Z"/>
    </g>
  </g>
  <g>
    <path class="cls-2" d="m52.55,69.1l-1.15-1.42-1.13,1.39c-1.23,1.68-2.7,4.13-3.05,6.58,0,.13-.12,1.99,1.28,3.15,1.09.91,2.44,1.08,2.89,1.11.44-.03,1.81-.21,2.9-1.11,1.39-1.16,1.29-3.01,1.28-3.15-.34-2.45-1.8-4.88-3.03-6.56Z"/>
    <path class="cls-3" d="m64.3,78.06c-.02,2.23-.76,4.25-.76,4.25-3.92,5-10.91,5.14-12.13,5.12-1.23.02-8.22-.13-12.13-5.12,0,0-.75-2.02-.76-4.25,0-.25,0-.5.03-.76-.25.94-.36,1.99-.26,3.18.35,4.23,2.65,7.21,6.85,8.85,2.94,1.15,5.81,1.22,6.28,1.22.47,0,3.34-.07,6.28-1.22,4.19-1.64,6.5-4.62,6.85-8.85.1-1.18-.02-2.24-.26-3.18.02.25.04.51.03.76Z"/>
    <path class="cls-3" d="m39.91,76.54c.24,3.74,3.52,7.18,11.49,7.32,7.97-.14,11.25-3.58,11.49-7.32.15-2.4-2.09-4.01-2.09-4.01,0,0,.01,0,.02,0-1.29-.89-3.12-1.72-5.66-1.99.84,1.48,1.56,3.19,1.81,4.94v.02c.01.11.26,2.7-1.77,4.39-1.36,1.13-3,1.38-3.65,1.43v.02s-.06,0-.14,0c-.08,0-.13,0-.14,0v-.02c-.65-.05-2.29-.3-3.65-1.43-2.03-1.69-1.79-4.28-1.78-4.39v-.02c.24-1.75.97-3.46,1.81-4.94-2.59.28-4.47,1.16-5.76,2.07-.46.37-2.1,1.85-1.97,3.92Z"/>
    <path class="cls-5" d="m48.8,79.18s2.39,1.41,2.6-7.24c0,0,1.34,3.16,2.46,2.74.79-.3.49-2.67-1.48-5.84,0,0,2.32,1.41,3.16,4.78.84,3.38,1.13,4.85-.84,5.63-1.97.77-4.43.91-4.43.91,0,0-1.41.35-1.83-.98"/>
    <path class="cls-1" d="m50.98,85.46c3.61-.04,11.53-2.34,11.72-6.75.19-4.41-7.22-5.63-7.22-5.63,0,0,1.44,4.59-.38,6.19-4.69,4.13-7.88-.94-7.88-.94-2.34,3-7.41,2.16-7.41,2.16,0,0,2.63,5.06,11.16,4.97Z"/>
    <path class="cls-1" d="m42.87,88.41c-.69-.49-1.36-1.06-2.01-1.72.03.05.55.94,2.01,1.72Z"/>
    <path class="cls-1" d="m63.92,76.74l-2.63,5.91-8.34,3.19s1.22,3.66-4.22,3.75c-2.78.05-4.64-.53-5.86-1.18,2.67,1.91,5.55,2.59,8.25,2.63.63-.25,1.61-.51,3.03-.81,8.16-1.76,9.49-8.23,9.49-8.23-.2-2.2-.02-3.93.3-5.24-.01,0-.02,0-.02,0Z"/>
    <path class="cls-2" d="m48.08,71.54l-.38-1.88s-5.44.47-7.45,3.66c-2.02,3.19-2.34,6.19,1.41,8.77,3.75,2.58,8.16,1.73,8.16,1.73,0,0-8.25-.66-8.81-6.66-.47-5.02,7.08-5.63,7.08-5.63Z"/>
    <path class="cls-2" d="m38.61,77.56l-.21-1.55c-4.01,16.25,14.07,14.42,14.07,14.42-15.26-.84-13.85-12.87-13.85-12.87Z"/>
    <path class="cls-2" d="m58.91,71.21c-3.56-1.27-4.64-1.27-4.64-1.27l.84,1.17s6.56.47,7.74,4.13c0,0-.38-2.77-3.94-4.03Z"/>
    <path d="m64.61,74.48s-.19-.36-.53-.8c-.92-1.31-2.08-2.37-3.27-3.12-.33-.24-1.01-.47-1.01-.47-1.84-.73-4.92-.9-5.36-.93-1.68-1.74-3.16-3.35-3.16-3.35l-2.79,3.25c-2.05.1-4.12.46-5.49,1.04l-.98.46c-1.19.76-2.35,1.81-3.27,3.12-.33.44-.5.75-.53.8h.01c-.97,1.69-1.54,3.74-1.34,6.12.39,4.74,3.07,8.21,7.74,10.04,3.05,1.19,5.96,1.31,6.71,1.32h0s.03,0,.06,0c0,0,.02,0,.03,0,0,0,.02,0,.03,0,.03,0,.05,0,.06,0h0c.74-.01,3.66-.13,6.71-1.32,4.67-1.83,7.34-5.3,7.74-10.04.2-2.37-.37-4.42-1.34-6.11h.01Zm-14.32-5.41l1.13-1.39,1.15,1.42c1.22,1.68,2.68,4.11,3.03,6.56.01.15.12,2-1.28,3.15-1.09.9-2.46,1.08-2.9,1.11-.45-.03-1.8-.21-2.89-1.11-1.4-1.16-1.29-3.02-1.28-3.15.34-2.46,1.82-4.9,3.05-6.58Zm-8.4,3.54c1.29-.91,3.16-1.79,5.76-2.07-.84,1.48-1.56,3.19-1.8,4.94v.02c-.01.11-.26,2.7,1.77,4.39,1.36,1.13,3,1.38,3.65,1.43v.02s.06,0,.14,0c.08,0,.13,0,.14,0v-.02c.65-.05,2.29-.3,3.65-1.43,2.03-1.69,1.79-4.28,1.78-4.39v-.02c-.24-1.75-.97-3.46-1.81-4.94,2.54.27,4.38,1.1,5.66,1.99,0,0-.01,0-.02,0,0,0,2.24,1.61,2.09,4.01-.02.29-.06.59-.12.87-1.04-2.47-4.34-3.43-4.34-3.43,1.56,1.37,2.53,2.6,2.18,4.96-.6,3.99-6.07,4.65-6.07,4.65.01,0,.03,0,.04,0-.97.15-2.02.24-3.18.26-7.97-.14-11.25-3.58-11.49-7.32-.13-2.07,1.52-3.56,1.97-3.92Zm22.65,7.87c-.35,4.23-2.65,7.21-6.85,8.85-2.94,1.15-5.81,1.22-6.28,1.22-.47,0-3.34-.07-6.28-1.22-4.19-1.64-6.5-4.62-6.85-8.85-.1-1.18.02-2.24.26-3.18-.02.25-.04.51-.03.76.02,2.23.76,4.25.76,4.25,3.92,5,10.91,5.14,12.13,5.12,1.23.02,8.22-.13,12.13-5.12,0,0,.75-2.02.76-4.25,0-.25,0-.5-.03-.76.25.94.36,1.99.26,3.18Z"/>
  </g>
</svg>